<?xml version="1.0" encoding="utf-8"?>
<!-- Generator: Adobe Illustrator 15.0.2, SVG Export Plug-In . SVG Version: 6.00 Build 0)  -->
<!DOCTYPE svg PUBLIC "-//W3C//DTD SVG 1.1//EN" "http://www.w3.org/Graphics/SVG/1.1/DTD/svg11.dtd">
<svg version="1.1" id="Layer_1" xmlns="http://www.w3.org/2000/svg" xmlns:xlink="http://www.w3.org/1999/xlink" x="0px" y="0px"
	 width="512px" height="439.982px" viewBox="0 0 512 439.982" enable-background="new 0 0 512 439.982" xml:space="preserve">
<path d="M512,439.982H0v-95.998h47.999v-31.992h32.002v16.006h15.996v-96.002h16.002v-32.003h47.998v159.998h31.998v-64.006h32.002
	v-79.991h31.998v112.004h16.006h3.474c44.525-64.005,4.52-192,4.52-192h-31.997c0,0,0-28.001-16.001-28.001l-7.999-12L284.001,76
	V55.997h11.329C302.257,41.886,307.083,23.629,308,0h7.993c0,0,1.105,28.736,13.776,55.997h10.224V76l60.003,19.997l-7.993,16.002
	c0,0-16.011,7.998-16.011,23.999h-31.993c0,0-40.005,127.995,4.52,192h19.48v-47.999v-16.006v-16.001h31.997v16.001h16.007v64.005
	h31.992v47.999h15.986v-16.006h32.013v31.992h15.986L512,439.982z"/>
</svg>
